<?xml version="1.0" encoding="UTF-8" standalone="no"?>
<svg width="418px" height="448px" viewBox="0 0 418 448" version="1.1" xmlns="http://www.w3.org/2000/svg" xmlns:xlink="http://www.w3.org/1999/xlink">
    <!-- Generator: Sketch 39.1 (31720) - http://www.bohemiancoding.com/sketch -->
    <title>delivery-graphic</title>
    <desc>Created with Sketch.</desc>
    <defs></defs>
    <g id="Event-Confirm" stroke="none" stroke-width="1" fill="none" fill-rule="evenodd">
        <g id="Event-Confirm-Desktop" transform="translate(-721.000000, -468.000000)">
            <g id="delivery-graphic" transform="translate(721.000000, 470.000000)">
                <path d="M0.0114240632,146.824257 C0.170533478,149.494417 1.94323068,151.741355 4.50949022,152.506523 L52.038218,166.859042 L53.7841213,199.579892 C53.8641722,200.875656 54.7364622,202.012505 55.9805589,202.434405 C56.3242485,202.56755 56.6953935,202.620411 57.0390831,202.620411 C57.9652917,202.620411 58.838905,202.250051 59.4733579,201.536423 L76.2777599,182.954665 L100.094554,199.420977 C101.152747,200.161697 102.397175,200.558157 103.693205,200.558157 C106.684528,200.558157 109.277582,198.444033 109.912035,195.483467 L129.680635,94.8625348 C129.918472,93.6982634 129.46893,92.4824522 128.569516,91.7430539 C127.642976,90.9765643 126.398549,90.7918799 125.287429,91.2412014 L3.82211109,140.612718 C1.36038081,141.723797 -0.147354563,144.15542 0.0114240632,146.824257 L0.0114240632,146.824257 Z M59.8183706,191.466004 L58.7330526,170.823644 L70.9060806,179.22893 L59.8183706,191.466004 Z M103.588345,193.977579 L60.2407879,164.004198 L121.0272,105.275892 L103.588345,193.977579 Z M114.358498,102.685685 L54.2607879,160.753225 L6.78630956,146.428128 L114.358498,102.685685 Z" id="paper-plane" fill="#FFDE00"></path>
                <path d="M149.38899,73.0722093 C149.38899,73.0722093 233.448408,-8.51333698 323.448309,1.61088998 C413.448209,11.7351169 427.670317,85.5899949 404.237727,134.403014 C380.805136,183.216033 333.5885,208.893511 247.857312,221.500247 C162.126123,234.106982 81.343636,240.256435 24.2556544,311.999987 C-22.1753109,370.350665 28.5676186,430.997319 91.396268,439.338061 C182.460359,451.427164 239.741024,425.558123 262.163189,369.888018" id="Path-2" stroke="#FFDE00" stroke-width="6" stroke-linecap="round" stroke-linejoin="round" stroke-dasharray="1,20"></path>
                <path d="M288.388444,300.496927 C288.388444,285.31478 276.211556,273 261.197333,273 C246.176889,273 234,285.31478 234,300.496927 C234,313.606683 254.255407,348.625463 259.803556,357.97639 C260.096,358.46722 260.622815,358.769268 261.197333,358.769268 C261.76563,358.769268 262.292444,358.46722 262.582815,357.97639 C268.133037,348.633854 288.388444,313.606683 288.388444,300.496927 L288.388444,300.496927 Z M261.197333,315.884634 C249.597037,315.884634 240.14963,307.660272 240.14963,297.551048 C240.14963,287.441823 249.597037,279.219268 261.197333,279.219268 C272.799704,279.219268 282.238815,287.441823 282.238815,297.551048 C282.238815,307.660272 272.799704,315.884634 261.197333,315.884634 L261.197333,315.884634 Z" id="pin" fill="#FFDE00"></path>
            </g>
        </g>
    </g>
</svg>