<?xml version="1.0" encoding="UTF-8" standalone="no"?>
<svg width="214px" height="202px" viewBox="0 0 214 202" version="1.1" xmlns="http://www.w3.org/2000/svg" xmlns:xlink="http://www.w3.org/1999/xlink">
    <!-- Generator: Sketch 39.1 (31720) - http://www.bohemiancoding.com/sketch -->
    <title>directional-arrows-signals-on-a-pole</title>
    <desc>Created with Sketch.</desc>
    <defs>
        <polygon id="path-1" points="107.040482 0.877113636 0.28173913 0.877113636 0.28173913 201.300159 213.799226 201.300159 213.799226 0.877113636 107.040482 0.877113636"></polygon>
    </defs>
    <g id="Landing-Page" stroke="none" stroke-width="1" fill="none" fill-rule="evenodd">
        <g id="Desktop-HD" transform="translate(-407.000000, -1218.000000)">
            <g id="directional-arrows-signals-on-a-pole" transform="translate(407.000000, 1218.000000)">
                <mask id="mask-2" fill="white">
                    <use xlink:href="#path-1"></use>
                </mask>
                <g id="Clip-2"></g>
                <path d="M213.797739,44.1212955 C213.835304,42.4841136 213.15913,40.9222045 211.966435,39.8213409 L193.404522,22.7673636 C192.357391,21.8076364 191.000348,21.2760227 189.586957,21.2760227 L112.329391,21.2760227 L112.329391,6.51786364 C112.329391,3.39404545 109.817217,0.877113636 106.699304,0.877113636 C103.581391,0.877113636 101.064522,3.39404545 101.064522,6.51786364 L101.064522,61.5610455 L24.192,61.5610455 C22.7973913,61.5610455 21.4215652,62.0738409 20.397913,63.0288636 L1.836,80.0828409 C0.624521739,81.1884091 -0.0375652174,82.7503182 -5.95563095e-14,84.3827955 C0.0375652174,86.0199773 0.770086957,87.54425 2.01913043,88.5933636 L20.5998261,104.085432 C21.6093913,104.927545 22.8913043,105.407409 24.192,105.407409 L101.064522,105.407409 L101.064522,195.659409 C101.064522,198.764409 103.581391,201.300159 106.699304,201.300159 C109.817217,201.300159 112.329391,198.764409 112.329391,195.659409 L112.329391,65.1223864 L189.586957,65.1223864 C190.906435,65.1223864 192.193043,64.6660455 193.202609,63.8192273 L211.764522,48.3083409 C213.00887,47.2780455 213.746087,45.7349545 213.797739,44.1212955 L213.797739,44.1212955 Z M26.2486957,94.1070909 L14.1949565,84.0534773 L26.3942609,72.8425455 L101.064522,72.8425455 L101.064522,94.1070909 L26.2486957,94.1070909 Z M187.549043,53.8408864 L112.733217,53.8408864 L112.733217,32.5763409 L187.403478,32.5763409 L199.602783,43.7684545 L187.549043,53.8408864 Z" id="Fill-1" fill="#4A4A4A" mask="url(#mask-2)"></path>
            </g>
        </g>
    </g>
</svg>