<?xml version="1.0" encoding="UTF-8" standalone="no"?>
<svg width="50px" height="50px" viewBox="0 0 50 50" version="1.1" xmlns="http://www.w3.org/2000/svg" xmlns:xlink="http://www.w3.org/1999/xlink">
    <!-- Generator: Sketch 39.1 (31720) - http://www.bohemiancoding.com/sketch -->
    <title>Facebook</title>
    <desc>Created with Sketch.</desc>
    <defs></defs>
    <g id="Event-Confirm" stroke="none" stroke-width="1" fill="none" fill-rule="evenodd">
        <g id="Event-Confirm-Desktop" transform="translate(-659.000000, -1311.000000)">
            <g id="event" transform="translate(656.000000, 1105.000000)">
                <g id="Facebook" transform="translate(3.000000, 206.000000)">
                    <g id="Page-1">
                        <g>
                            <g id="Facebook">
                                <g id="Group">
                                    <path d="M0.0935752867,25 C0.0935752867,11.1928806 11.1188755,0 24.7192742,0 C38.3196728,0 49.344973,11.1928806 49.344973,25 C49.344973,38.8071194 38.3196728,50 24.7192742,50 C11.1188755,50 0.0935752867,38.8071194 0.0935752867,25 L0.0935752867,25 Z" id="Shape" fill="#3B5998"></path>
                                    <path d="M26.7784547,38.5997274 L26.7784547,24.9984076 L30.4714637,24.9984076 L30.9608672,20.3113174 L26.7784547,20.3113174 L26.7847292,17.9653837 C26.7847292,16.7429183 26.8989756,16.0878935 28.626005,16.0878935 L30.9347238,16.0878935 L30.9347238,11.4002726 L27.241192,11.4002726 C22.8046662,11.4002726 21.2431242,13.6740156 21.2431242,17.4977363 L21.2431242,20.3118483 L18.4776811,20.3118483 L18.4776811,24.9989383 L21.2431242,24.9989383 L21.2431242,38.5997274 L26.7784547,38.5997274 L26.7784547,38.5997274 Z" id="Path" fill="#FFFFFF"></path>
                                </g>
                            </g>
                        </g>
                    </g>
                </g>
            </g>
        </g>
    </g>
</svg>