<?xml version="1.0" encoding="UTF-8" standalone="no"?>
<svg width="192px" height="210px" viewBox="0 0 192 210" version="1.1" xmlns="http://www.w3.org/2000/svg" xmlns:xlink="http://www.w3.org/1999/xlink">
    <!-- Generator: Sketch 39.1 (31720) - http://www.bohemiancoding.com/sketch -->
    <title>group</title>
    <desc>Created with Sketch.</desc>
    <defs>
        <polygon id="path-1" points="0.0313043478 181.922531 56.0973913 181.922531 56.0973913 0.167791563 0.0313043478 0.167791563"></polygon>
    </defs>
    <g id="Landing-Page" stroke="none" stroke-width="1" fill="none" fill-rule="evenodd">
        <g id="Desktop-HD" transform="translate(-840.000000, -923.000000)">
            <g id="group" transform="translate(840.000000, 923.000000)">
                <path d="M180.061761,192.721051 C178.47587,194.221991 176.305826,195.139504 173.969217,195.139504 C169.293913,195.139504 165.621391,191.135434 165.621391,186.468015 L165.953739,143.113697 L161.280522,143.113697 L160.946087,186.468015 C160.946087,191.135434 156.939652,194.805484 152.264348,194.805484 C147.589043,194.805484 143.916522,190.803499 143.916522,186.133995 L144.250435,122.43469 C144.250435,121.769256 144.58487,121.435236 144.58487,120.767717 C139.241217,117.099752 135.902609,111.096774 135.902609,104.092779 L135.902609,74.7448883 C135.902609,63.4069727 144.919304,54.4019851 156.271304,54.4019851 L171.297391,54.4019851 C175.758886,54.4019851 179.859589,55.8444882 183.214272,58.2838824 C188.542667,61.9314184 192,68.0578115 192,75.0783871 L191.665565,104.760298 C191.665565,111.764814 188.327478,117.76727 182.983826,121.435236 L182.983826,123.10273 L182.649391,186.802035 C182.649391,189.135744 181.647652,191.220112 180.061761,192.721051 L180.061761,192.721051 Z M175.179326,44.2715695 C172.215783,48.0652481 168.125478,50.4 163.618435,50.4 C154.601739,50.4 147.254609,41.0609926 147.254609,29.3895782 C147.254609,18.0516625 154.601739,13.7161787 163.618435,13.7161787 C168.125478,13.7161787 172.215783,14.7165447 175.179326,17.1759026 C178.14287,19.6352605 179.979652,23.5536104 179.979652,29.3895782 C179.979652,35.2252854 178.14287,40.4778908 175.179326,44.2715695 L175.179326,44.2715695 Z M92.2177838,190.951529 L92.1605217,199.472903 C91.826087,204.809926 87.4852174,209.145931 82.1431304,209.145931 C76.7994783,209.145931 72.4586087,204.476427 72.4586087,199.140968 L72.7930435,125.771241 C72.7930435,125.103201 73.1269565,124.435682 73.1269565,123.770248 C67.1170435,119.434243 63.110087,112.430248 63.110087,104.426799 L63.4445217,70.4088834 C63.7763478,57.403995 74.1276522,47.0660546 87.1507826,47.0660546 L104.514783,47.0660546 C111.136875,47.0660546 117.154613,49.824847 121.38247,54.3346503 C125.422525,58.600926 127.889217,64.3934522 127.889217,70.7429032 L127.554783,104.760298 C127.554783,108.601443 126.632065,112.135357 125.007953,115.251517 C123.332182,118.742543 120.789292,121.737587 117.673856,124.089046 C117.872348,124.648791 117.872348,125.209832 117.872348,125.771241 L117.537913,199.140968 C117.537913,200.740133 117.117909,202.249467 116.385791,203.579158 C114.818151,207.045098 111.189576,209.479429 107.186609,209.479429 C101.842957,209.145931 97.502087,204.809926 97.502087,199.472903 L97.8365217,149.782109 L92.8243875,149.782109 L92.4944348,198.807469 L92.2177838,190.951529 L92.2177838,190.951529 Z M108.729913,35.3927512 C105.349043,39.7284305 100.674261,42.3965509 95.4986087,42.3965509 C85.1473043,42.3965509 76.7994783,31.3905707 76.7994783,18.383598 C76.7994783,5.37870968 85.1473043,0.375186104 95.4986087,0.375186104 C100.674261,0.375186104 105.349043,1.54256203 108.729913,4.37730149 C112.110783,7.21204094 114.197739,11.7141439 114.197739,18.383598 C114.197739,25.0538337 112.110783,31.057072 108.729913,35.3927512 L108.729913,35.3927512 Z M27.7153043,50.4 C36.7293913,50.4 44.0765217,41.0609926 44.0765217,29.3895782 C44.0765217,17.7176427 36.7293913,13.7161787 27.7153043,13.7161787 C18.6991304,13.7161787 11.354087,18.0516625 11.354087,29.3895782 C11.354087,41.0609926 18.6991304,50.4 27.7153043,50.4 L27.7153043,50.4 Z" id="Combined-Shape" fill="#4A4A4A"></path>
                <g id="Group-13" transform="translate(0.000000, 13.548387)">
                    <mask id="mask-2" fill="white">
                        <use xlink:href="#path-1"></use>
                    </mask>
                    <g id="Clip-11"></g>
                    <path d="M27.7153043,36.8516129 C36.7293913,36.8516129 44.0765217,27.5126055 44.0765217,15.8411911 C44.0765217,4.16925558 36.7293913,0.167791563 27.7153043,0.167791563" id="Fill-10" fill="#4A4A4A" mask="url(#mask-2)"></path>
                    <path d="M35.7286957,40.853598 L20.7026087,40.853598 C9.3506087,40.853598 0.334434783,49.8585856 0.334434783,61.1965012 L0,90.8784119 C0,97.8824069 3.33808696,103.885385 8.68226087,107.55335 C8.68226087,108.220868 8.34782609,108.554888 8.34782609,109.220323 L8.0133913,172.919628 C8.0133913,177.587047 11.685913,181.591117 16.3612174,181.591117 C21.0365217,181.591117 25.0434783,177.921067 25.0434783,173.253648 L25.377913,129.897246 L30.0532174,129.897246 L29.7187826,173.253648 C29.7187826,177.921067 33.3913043,181.922531 38.0666087,181.922531 C42.741913,181.922531 46.7488696,178.254566 46.7488696,173.585062 L47.0806957,109.887841 L47.0806957,108.220868 C52.4243478,104.552903 55.7629565,98.5478412 55.7629565,91.5459305 L56.0973913,61.8640199 C56.0973913,50.1926055 46.7488696,40.853598 35.7286957,40.853598 L35.7286957,40.853598 Z" id="Fill-12" fill="#4A4A4A" mask="url(#mask-2)"></path>
                </g>
                <path d="M25.0434783,186.468015 L25.377913,143.113697 L30.0532174,143.113697 L29.7187826,186.468015 C29.7187826,191.135434 33.3913043,195.139504 38.0666087,195.139504 C42.741913,195.139504 46.7488696,191.469454 46.7488696,186.802035 L47.0806957,123.10273 L47.0806957,121.435236 C52.4243478,117.76727 55.7629565,111.430794 55.7629565,104.760298 L55.7629565,75.4124069 C55.7629565,64.0724069 46.7488696,55.0695037 35.3947826,55.0695037 L20.3681739,55.0695037" id="Fill-14" fill="#4A4A4A"></path>
            </g>
        </g>
    </g>
</svg>