<?xml version="1.0" encoding="UTF-8" standalone="no"?>
<svg width="346px" height="375px" viewBox="0 0 346 375" version="1.1" xmlns="http://www.w3.org/2000/svg" xmlns:xlink="http://www.w3.org/1999/xlink">
    <!-- Generator: Sketch 39.1 (31720) - http://www.bohemiancoding.com/sketch -->
    <title>loudspeaker</title>
    <desc>Created with Sketch.</desc>
    <defs>
        <polygon id="path-1" points="1.36424227e-12 0.760950833 1.36424227e-12 344.999 352.522552 344.999 352.522552 0.760950833 1.36424205e-12 0.760950833"></polygon>
    </defs>
    <g id="Event-List" stroke="none" stroke-width="1" fill="none" fill-rule="evenodd">
        <g id="loudspeaker" transform="translate(182.500000, 199.500000) rotate(-15.000000) translate(-182.500000, -199.500000) translate(6.000000, 27.000000)">
            <polygon id="Fill-1" fill-opacity="0.292912138" fill="#FFDE00" points="106.551 87.765 70.863 87.757 70.863 187.378 106.551 187.378"></polygon>
            <g id="Group-5">
                <mask id="mask-2" fill="white">
                    <use xlink:href="#path-1"></use>
                </mask>
                <g id="Clip-3"></g>
                <path d="M169.648,297.917 L144.176,210.327 C128.438,207.737 117.723,206.745 115.75,206.577 L97.664,206.577 L127.844,310.343 C127.879,310.437 127.91,310.526 127.938,310.624 C131.52,321.827 143.609,328.226 154.883,324.89 C166.164,321.554 172.824,309.601 169.734,298.249 C169.703,298.14 169.676,298.03 169.648,297.917 L169.648,297.917 Z" id="Fill-2" fill-opacity="0.292912138" fill="#FFDE00" mask="url(#mask-2)"></path>
                <path d="M337.75,101.636 C330.953,95.058 322.547,90.937 313.59,89.671 L313.59,10.362 C313.59,6.593 311.383,3.171 307.949,1.616 C304.52,0.062 300.496,0.659 297.66,3.14 C238.801,54.737 131.211,67.147 116.781,68.597 C116.574,68.585 116.367,68.565 116.152,68.565 L64.012,68.558 C63.863,68.558 63.715,68.562 63.566,68.565 L63.305,68.565 L63.023,68.569 C27.68,69.167 -0.59,100.601 0.008,138.644 C0.293,156.733 7.016,173.722 18.934,186.479 C31.051,199.444 47.121,206.581 64.195,206.581 C64.508,206.581 77.668,206.573 77.668,206.573 L109.562,316.226 C109.641,316.507 109.734,316.78 109.844,317.05 C113.195,327.042 120.156,335.249 129.492,340.202 C135.484,343.386 142.043,344.999 148.656,344.999 C152.562,344.999 156.488,344.437 160.332,343.3 C170.684,340.237 179.277,333.354 184.523,323.921 C189.668,314.675 191.039,303.995 188.41,293.772 C188.359,293.53 188.301,293.288 188.23,293.05 L165.316,214.269 C205.426,222.632 260.938,239.351 297.66,271.538 C299.445,273.104 301.707,273.921 303.988,273.921 C305.332,273.921 306.68,273.64 307.949,273.062 C311.383,271.507 313.586,268.089 313.586,264.319 L313.586,184.722 C335.84,181.628 352.906,161.026 352.516,136.444 C352.309,123.206 346.93,110.519 337.75,101.636 L337.75,101.636 Z M154.883,324.89 C143.609,328.226 131.52,321.827 127.938,310.62 C127.91,310.526 127.879,310.433 127.844,310.343 L97.664,206.573 L115.75,206.573 C117.723,206.745 128.438,207.737 144.176,210.327 L169.648,297.917 C169.676,298.026 169.703,298.14 169.734,298.249 C172.824,309.601 166.164,321.55 154.883,324.89 L154.883,324.89 Z M70.863,87.757 L106.551,87.765 L106.551,187.378 L70.863,187.378 L70.863,87.757 Z M51.664,185.374 C33.258,179.378 19.555,160.569 19.207,138.343 C18.844,115.354 32.656,95.722 51.664,89.683 L51.664,185.374 Z M294.387,244.644 C267.152,225.569 231.34,210.46 187.605,199.612 C160.582,192.913 137.699,189.687 125.75,188.304 L125.75,86.929 C137.75,85.479 160.594,82.147 187.543,75.366 C231.32,64.351 267.148,49.14 294.387,30.046 L294.387,244.644 Z M313.586,165.194 L313.586,109.229 C317.547,110.284 321.258,112.397 324.398,115.433 C329.938,120.796 333.191,128.565 333.32,136.745 C333.539,150.53 325.035,162.222 313.586,165.194 L313.586,165.194 Z" id="Fill-4" fill="#FFDE00" mask="url(#mask-2)"></path>
            </g>
        </g>
    </g>
</svg>