<?xml version="1.0" encoding="UTF-8" standalone="no"?>
<svg width="50px" height="50px" viewBox="0 0 50 50" version="1.1" xmlns="http://www.w3.org/2000/svg" xmlns:xlink="http://www.w3.org/1999/xlink">
    <!-- Generator: Sketch 39.1 (31720) - http://www.bohemiancoding.com/sketch -->
    <title>Twitter</title>
    <desc>Created with Sketch.</desc>
    <defs></defs>
    <g id="Event-Confirm" stroke="none" stroke-width="1" fill="none" fill-rule="evenodd">
        <g id="Event-Confirm-Desktop" transform="translate(-724.000000, -1311.000000)">
            <g id="event" transform="translate(656.000000, 1105.000000)">
                <g id="Twitter" transform="translate(68.000000, 206.000000)">
                    <g id="Page-1">
                        <g>
                            <g id="Twitter">
                                <g id="Group">
                                    <path d="M0,25 C0,11.1928806 11.0253002,0 24.6256989,0 C38.2260975,0 49.2513977,11.1928806 49.2513977,25 C49.2513977,38.8071194 38.2260975,50 24.6256989,50 C11.0253002,50 0,38.8071194 0,25 L0,25 Z" id="Shape" fill="#4099FF"></path>
                                    <path d="M24.6733634,20.3203131 L24.7249643,21.1853696 L23.8649487,21.0794443 C20.734492,20.6733974 17.9996425,19.2963688 15.6776005,16.9836671 L14.5423799,15.8361432 L14.2499747,16.6835454 C13.6307634,18.5725461 14.0263706,20.5674721 15.3163939,21.9091922 C16.0044064,22.6506691 15.8496036,22.7565945 14.6627821,22.3152391 C14.2499747,22.1740054 13.8887681,22.0680801 13.8543675,22.1210428 C13.7339653,22.2446223 14.1467728,23.8511556 14.4735787,24.4867072 C14.9207868,25.3694179 15.8324033,26.2344742 16.8300213,26.7464464 L17.6728366,27.1524933 L16.6752185,27.1701475 C15.7120011,27.1701475 15.6776005,27.1878017 15.7808024,27.5585401 C16.1248086,28.706064 17.4836332,29.9242046 18.9972606,30.453831 L20.0636798,30.8245695 L19.134863,31.3895042 C17.7588381,32.201598 16.1420089,32.6606076 14.5251796,32.695916 C13.7511656,32.7135701 13.1147541,32.784187 13.1147541,32.8371496 C13.1147541,33.0136917 15.213192,34.0023276 16.4344142,34.3907203 C20.0980805,35.5382441 24.4497593,35.0439261 27.7178184,33.0843086 C30.0398605,31.6896258 32.3619025,28.9179146 33.4455221,26.2344742 C34.0303327,24.8044831 34.6151433,22.1916596 34.6151433,20.9382106 C34.6151433,20.1261168 34.6667443,20.0201916 35.6299616,19.0492099 C36.197572,18.4842751 36.7307816,17.8663776 36.8339834,17.6898355 C37.0059866,17.3544055 36.9887863,17.3544055 36.1115704,17.6545271 C34.6495439,18.1841535 34.4431402,18.1135366 35.1655533,17.3190971 C35.698763,16.7541622 36.3351744,15.730218 36.3351744,15.4300963 C36.3351744,15.3771337 36.0771698,15.4654048 35.7847645,15.6242926 C35.4751589,15.8008348 34.7871464,16.065648 34.271137,16.2245359 L33.3423202,16.5246575 L32.499505,15.9420685 C32.0350966,15.6242926 31.3814848,15.2712085 31.0374785,15.1652831 C30.1602626,14.9181242 28.8186384,14.9534326 28.027424,15.2359 C25.8773851,16.0303396 24.5185605,18.0782282 24.6733634,20.3203131 L24.6733634,20.3203131 Z" id="Path" fill="#FFFFFF"></path>
                                </g>
                            </g>
                        </g>
                    </g>
                </g>
            </g>
        </g>
    </g>
</svg>